<?xml version="1.0" encoding="utf-8"?>
<!-- Generator: Adobe Illustrator 23.0.2, SVG Export Plug-In . SVG Version: 6.00 Build 0)  -->
<svg version="1.1" id="Capa_2" xmlns="http://www.w3.org/2000/svg" xmlns:xlink="http://www.w3.org/1999/xlink" x="0px" y="0px"
	 viewBox="0 0 1367 225" style="enable-background:new 0 0 1367 225;" xml:space="preserve">
<style type="text/css">
	.st0{fill:#A8A3A3;}
</style>
<g>
	<path class="st0" d="M388.17,82.66v67.32h-8.82V82.66H388.17z"/>
	<path class="st0" d="M402.37,139.4c3.95,2.4,9.73,4.4,15.82,4.4c9.02,0,14.3-4.7,14.3-11.49c0-6.29-3.65-9.89-12.88-13.38
		c-11.15-3.89-18.05-9.59-18.05-19.08c0-10.49,8.82-18.28,22.1-18.28c7,0,12.07,1.6,15.11,3.3l-2.43,7.09
		c-2.23-1.2-6.79-3.2-12.98-3.2c-9.33,0-12.88,5.49-12.88,10.09c0,6.29,4.16,9.39,13.59,12.98c11.56,4.4,17.44,9.89,17.44,19.78
		c0,10.39-7.81,19.38-23.93,19.38c-6.59,0-13.79-1.9-17.44-4.29L402.37,139.4z"/>
	<path class="st0" d="M453.58,82.66h8.82v60.03h29.2v7.29h-38.02V82.66z"/>
	<path class="st0" d="M512.49,128.81l-7.1,21.18h-9.13l23.22-67.32h10.65l23.32,67.32h-9.43l-7.3-21.18H512.49z M534.9,122.02
		l-6.69-19.38c-1.52-4.39-2.53-8.39-3.55-12.29h-0.2c-1.01,4-2.13,8.09-3.45,12.19l-6.69,19.48H534.9z"/>
	<path class="st0" d="M601.93,71.03v15.8h-12.38v63.15h-20.84V86.83h-12.33v-15.8H601.93z"/>
	<path class="st0" d="M654.32,117.26c0,7.93-0.19,13.55-0.57,16.85c-0.38,3.3-1.57,6.32-3.56,9.05c-2,2.73-4.7,4.83-8.1,6.29
		c-3.4,1.46-7.36,2.19-11.88,2.19c-4.29,0-8.15-0.69-11.56-2.07c-3.42-1.38-6.16-3.46-8.24-6.22c-2.08-2.76-3.32-5.77-3.71-9.02
		s-0.59-8.94-0.59-17.07v-13.51c0-7.93,0.19-13.55,0.57-16.85c0.38-3.3,1.57-6.32,3.56-9.05c2-2.73,4.7-4.83,8.1-6.29
		c3.4-1.46,7.36-2.19,11.88-2.19c4.29,0,8.14,0.69,11.56,2.07c3.42,1.38,6.16,3.46,8.24,6.22c2.08,2.76,3.32,5.77,3.71,9.02
		c0.4,3.25,0.59,8.94,0.59,17.07V117.26z M633.47,91.32c0-3.67-0.21-6.02-0.62-7.05c-0.41-1.02-1.26-1.54-2.55-1.54
		c-1.09,0-1.92,0.41-2.5,1.24c-0.58,0.83-0.87,3.28-0.87,7.34v36.87c0,4.58,0.19,7.41,0.57,8.49c0.38,1.07,1.26,1.61,2.65,1.61
		c1.42,0,2.33-0.62,2.72-1.85c0.4-1.24,0.59-4.18,0.59-8.83V91.32z"/>
	<path class="st0" d="M709.47,71.03v52.77c0,5.98-0.2,10.18-0.59,12.61c-0.4,2.42-1.57,4.91-3.52,7.46c-1.95,2.55-4.51,4.49-7.7,5.8
		c-3.19,1.32-6.94,1.98-11.26,1.98c-4.79,0-9.01-0.78-12.68-2.34s-6.4-3.59-8.22-6.1s-2.89-5.15-3.22-7.92
		c-0.33-2.78-0.5-8.62-0.5-17.53V71.03h20.85v59.2c0,3.45,0.19,5.65,0.57,6.61c0.38,0.96,1.15,1.44,2.3,1.44
		c1.32,0,2.17-0.53,2.55-1.58s0.57-3.55,0.57-7.49V71.03H709.47z"/>
	<path class="st0" d="M717.55,71.03h14.75c9.84,0,16.5,0.37,19.98,1.12c3.48,0.75,6.32,2.66,8.52,5.73c2.2,3.07,3.29,7.97,3.29,14.7
		c0,6.15-0.78,10.27-2.33,12.39c-1.55,2.11-4.61,3.38-9.16,3.8c4.13,1.01,6.9,2.36,8.32,4.05c1.42,1.69,2.3,3.24,2.65,4.66
		s0.52,5.31,0.52,11.68v20.82h-19.36v-26.24c0-4.23-0.34-6.84-1.02-7.85c-0.68-1.01-2.45-1.51-5.32-1.51v35.6h-20.84V71.03z
		 M738.39,84.54v17.56c2.34,0,3.99-0.32,4.93-0.95c0.94-0.63,1.41-2.69,1.41-6.17v-4.34c0-2.5-0.45-4.15-1.36-4.93
		S740.8,84.54,738.39,84.54z"/>
</g>
<g>
</g>
<g>
</g>
<g>
</g>
<g>
</g>
<g>
</g>
<g>
</g>
<g>
</g>
<g>
</g>
<g>
</g>
<g>
</g>
<g>
</g>
<g>
</g>
<g>
</g>
<g>
</g>
<g>
</g>
</svg>
